<?xml version="1.0" encoding="UTF-8" standalone="no"?>
<!-- Created with Inkscape (http://www.inkscape.org/) -->

<svg
   xmlns:dc="http://purl.org/dc/elements/1.1/"
   xmlns:cc="http://creativecommons.org/ns#"
   xmlns:rdf="http://www.w3.org/1999/02/22-rdf-syntax-ns#"
   xmlns:svg="http://www.w3.org/2000/svg"
   xmlns="http://www.w3.org/2000/svg"
   xmlns:xlink="http://www.w3.org/1999/xlink"
   xmlns:sodipodi="http://sodipodi.sourceforge.net/DTD/sodipodi-0.dtd"
   xmlns:inkscape="http://www.inkscape.org/namespaces/inkscape"
   width="112"
   height="28"
   id="svg4428"
   version="1.1"
   inkscape:version="0.48.4 r9939"
   sodipodi:docname="maximize.svg">
  <defs
     id="defs4430">
    <linearGradient
       id="linearGradient3868">
      <stop
         style="stop-color:#5a5a5a;stop-opacity:1;"
         offset="0"
         id="stop3870" />
      <stop
         style="stop-color:#646464;stop-opacity:1;"
         offset="1"
         id="stop3872" />
    </linearGradient>
    <linearGradient
       id="linearGradient3813">
      <stop
         style="stop-color:#666666;stop-opacity:1;"
         offset="0"
         id="stop3815" />
      <stop
         style="stop-color:#636363;stop-opacity:1;"
         offset="1"
         id="stop3817" />
    </linearGradient>
    <linearGradient
       id="linearGradient3787">
      <stop
         style="stop-color:#e5e5df;stop-opacity:1;"
         offset="0"
         id="stop3789" />
      <stop
         style="stop-color:#dadad4;stop-opacity:1;"
         offset="1"
         id="stop3791" />
    </linearGradient>
    <linearGradient
       id="linearGradient3806-3-5-6">
      <stop
         style="stop-color:#303030;stop-opacity:1;"
         offset="0"
         id="stop3808-6-9-1" />
      <stop
         style="stop-color:#232323;stop-opacity:1;"
         offset="1"
         id="stop3810-4-6-3" />
    </linearGradient>
    <linearGradient
       inkscape:collect="always"
       xlink:href="#linearGradient3787"
       id="linearGradient3793"
       x1="40"
       y1="1044.3622"
       x2="40"
       y2="1032.3622"
       gradientUnits="userSpaceOnUse" />
    <linearGradient
       inkscape:collect="always"
       xlink:href="#linearGradient3787"
       id="linearGradient3828"
       gradientUnits="userSpaceOnUse"
       x1="40"
       y1="1044.3622"
       x2="40"
       y2="1032.3622"
       gradientTransform="matrix(1.1666666,0,0,1.0769231,-6.5,-80.335554)" />
    <linearGradient
       inkscape:collect="always"
       xlink:href="#linearGradient3787-8"
       id="linearGradient3835"
       gradientUnits="userSpaceOnUse"
       gradientTransform="matrix(1.1666666,0,0,1.0769231,-35.5,-1105.6978)"
       x1="40"
       y1="1044.3622"
       x2="40"
       y2="1032.3622" />
    <linearGradient
       inkscape:collect="always"
       xlink:href="#linearGradient3787-8"
       id="linearGradient3835-4"
       gradientUnits="userSpaceOnUse"
       gradientTransform="matrix(1.1666666,0,0,1.0769231,-35.5,-1105.6978)"
       x1="40"
       y1="1044.3622"
       x2="40"
       y2="1032.3622" />
    <linearGradient
       id="linearGradient3787-8">
      <stop
         style="stop-color:#f5f5ee;stop-opacity:1;"
         offset="0"
         id="stop3789-2" />
      <stop
         style="stop-color:#e6e6df;stop-opacity:1;"
         offset="1"
         id="stop3791-6" />
    </linearGradient>
    <linearGradient
       inkscape:collect="always"
       xlink:href="#linearGradient3787-8"
       id="linearGradient3835-3"
       gradientUnits="userSpaceOnUse"
       gradientTransform="matrix(1.1666666,0,0,1.0769231,-35.5,-1105.6978)"
       x1="40"
       y1="1044.3622"
       x2="40"
       y2="1032.3622" />
    <linearGradient
       id="linearGradient3787-7">
      <stop
         style="stop-color:#f5f5ee;stop-opacity:1;"
         offset="0"
         id="stop3789-3" />
      <stop
         style="stop-color:#e6e6e0;stop-opacity:1;"
         offset="1"
         id="stop3791-3" />
    </linearGradient>
    <linearGradient
       inkscape:collect="always"
       xlink:href="#linearGradient3787"
       id="linearGradient3807"
       x1="11"
       y1="15.75"
       x2="11"
       y2="8.25"
       gradientUnits="userSpaceOnUse" />
    <linearGradient
       inkscape:collect="always"
       xlink:href="#linearGradient3813"
       id="linearGradient3819"
       x1="29.5"
       y1="15.2"
       x2="29.5"
       y2="8.8000002"
       gradientUnits="userSpaceOnUse" />
    <linearGradient
       inkscape:collect="always"
       xlink:href="#linearGradient4231"
       id="linearGradient3807-1"
       x1="10"
       y1="7.0000038"
       x2="10"
       y2="15.888954"
       gradientUnits="userSpaceOnUse" />
    <linearGradient
       id="linearGradient4231">
      <stop
         id="stop4233"
         offset="0"
         style="stop-color:#e7e7e1;stop-opacity:1;" />
      <stop
         id="stop4239"
         offset="1"
         style="stop-color:#dadad3;stop-opacity:1;" />
    </linearGradient>
    <linearGradient
       inkscape:collect="always"
       xlink:href="#linearGradient4231-1"
       id="linearGradient3807-1-1"
       x1="10"
       y1="15.888976"
       x2="10"
       y2="7.0000262"
       gradientUnits="userSpaceOnUse" />
    <linearGradient
       id="linearGradient4231-1">
      <stop
         id="stop4233-6"
         offset="0"
         style="stop-color:#e5e5de;stop-opacity:1;" />
      <stop
         id="stop4239-7"
         offset="1"
         style="stop-color:#dadad3;stop-opacity:1;" />
    </linearGradient>
    <linearGradient
       id="linearGradient4363">
      <stop
         style="stop-color:#979791;stop-opacity:1;"
         offset="0"
         id="stop4365" />
      <stop
         style="stop-color:#dadad4;stop-opacity:0;"
         offset="1"
         id="stop4367" />
    </linearGradient>
    <linearGradient
       id="linearGradient4363-7">
      <stop
         style="stop-color:#f5f5ef;stop-opacity:1;"
         offset="0"
         id="stop4365-9" />
      <stop
         style="stop-color:#dadad4;stop-opacity:0;"
         offset="1"
         id="stop4367-8" />
    </linearGradient>
    <linearGradient
       inkscape:collect="always"
       xlink:href="#linearGradient4231-7"
       id="linearGradient4361"
       gradientUnits="userSpaceOnUse"
       gradientTransform="matrix(1.1875,0,0,1,-41.25,0)"
       x1="248.63158"
       y1="79"
       x2="248.63158"
       y2="58" />
    <linearGradient
       id="linearGradient4231-7">
      <stop
         id="stop4233-4"
         offset="0"
         style="stop-color:#e6e6df;stop-opacity:1;" />
      <stop
         id="stop4239-8"
         offset="1"
         style="stop-color:#d1d1ca;stop-opacity:1;" />
    </linearGradient>
    <linearGradient
       inkscape:collect="always"
       xlink:href="#linearGradient4231-7"
       id="linearGradient3127"
       gradientUnits="userSpaceOnUse"
       gradientTransform="matrix(1.1875,0,0,1,-262.25,-55.99998)"
       x1="248.63158"
       y1="79"
       x2="248.63158"
       y2="58" />
    <linearGradient
       inkscape:collect="always"
       xlink:href="#linearGradient4231-7"
       id="linearGradient3154"
       gradientUnits="userSpaceOnUse"
       gradientTransform="matrix(1.1875,0,0,1,-262.25,-55.99998)"
       x1="248.63158"
       y1="79"
       x2="248.63158"
       y2="58" />
    <linearGradient
       inkscape:collect="always"
       xlink:href="#linearGradient4231-7"
       id="linearGradient3159"
       gradientUnits="userSpaceOnUse"
       gradientTransform="matrix(1.1875,0,0,1,-249.25,-54.99998)"
       x1="248.63158"
       y1="79"
       x2="248.63158"
       y2="58" />
    <linearGradient
       inkscape:collect="always"
       xlink:href="#linearGradient4231-7-9"
       id="linearGradient3159-0"
       gradientUnits="userSpaceOnUse"
       gradientTransform="matrix(1.1875,0,0,1,-262.25,-55.99998)"
       x1="248.63158"
       y1="79"
       x2="248.63158"
       y2="58" />
    <linearGradient
       id="linearGradient4231-7-9">
      <stop
         id="stop4233-4-2"
         offset="0"
         style="stop-color:#e6e6df;stop-opacity:1;" />
      <stop
         id="stop4239-8-9"
         offset="1"
         style="stop-color:#d1d1ca;stop-opacity:1;" />
    </linearGradient>
    <linearGradient
       id="linearGradient4231-5">
      <stop
         id="stop4233-41"
         offset="0"
         style="stop-color:#e5e5de;stop-opacity:1;" />
      <stop
         id="stop4239-73"
         offset="1"
         style="stop-color:#dadad3;stop-opacity:1;" />
    </linearGradient>
    <linearGradient
       inkscape:collect="always"
       xlink:href="#linearGradient4231-7-7"
       id="linearGradient3159-1"
       gradientUnits="userSpaceOnUse"
       gradientTransform="matrix(1.1875,0,0,1,-262.25,-55.99998)"
       x1="248.63158"
       y1="79"
       x2="248.63158"
       y2="58" />
    <linearGradient
       id="linearGradient4231-7-7">
      <stop
         id="stop4233-4-7"
         offset="0"
         style="stop-color:#e6e6df;stop-opacity:1;" />
      <stop
         id="stop4239-8-2"
         offset="1"
         style="stop-color:#d1d1ca;stop-opacity:1;" />
    </linearGradient>
    <linearGradient
       inkscape:collect="always"
       xlink:href="#linearGradient4231-73"
       id="linearGradient3807-1-7"
       x1="10"
       y1="15.888976"
       x2="10"
       y2="7.0000262"
       gradientUnits="userSpaceOnUse" />
    <linearGradient
       id="linearGradient4231-73">
      <stop
         id="stop4233-1"
         offset="0"
         style="stop-color:#e5e5de;stop-opacity:1;" />
      <stop
         id="stop4239-85"
         offset="1"
         style="stop-color:#dadad3;stop-opacity:1;" />
    </linearGradient>
    <filter
       inkscape:collect="always"
       id="filter3848">
      <feGaussianBlur
         inkscape:collect="always"
         stdDeviation="0.085"
         id="feGaussianBlur3850" />
    </filter>
    <filter
       inkscape:collect="always"
       id="filter3856">
      <feGaussianBlur
         inkscape:collect="always"
         stdDeviation="0.084999999"
         id="feGaussianBlur3858" />
    </filter>
    <filter
       inkscape:collect="always"
       id="filter3864">
      <feGaussianBlur
         inkscape:collect="always"
         stdDeviation="0.085"
         id="feGaussianBlur3866" />
    </filter>
    <filter
       inkscape:collect="always"
       id="filter3872">
      <feGaussianBlur
         inkscape:collect="always"
         stdDeviation="0.085"
         id="feGaussianBlur3874" />
    </filter>
    <filter
       inkscape:collect="always"
       id="filter3916">
      <feGaussianBlur
         inkscape:collect="always"
         stdDeviation="0.085"
         id="feGaussianBlur3918" />
    </filter>
  </defs>
  <sodipodi:namedview
     id="base"
     pagecolor="#bdc3c7"
     bordercolor="#666666"
     borderopacity="1.0"
     inkscape:pageopacity="1"
     inkscape:pageshadow="2"
     inkscape:zoom="5.6568542"
     inkscape:cx="-14.152724"
     inkscape:cy="20.097183"
     inkscape:document-units="px"
     inkscape:current-layer="layer1"
     showgrid="false"
     inkscape:snap-bbox="true"
     inkscape:window-width="1874"
     inkscape:window-height="1050"
     inkscape:window-x="42"
     inkscape:window-y="0"
     inkscape:window-maximized="1"
     showborder="false"
     inkscape:showpageshadow="false">
    <inkscape:grid
       type="xygrid"
       id="grid4436"
       empspacing="5"
       visible="true"
       enabled="true"
       snapvisiblegridlinesonly="true" />
  </sodipodi:namedview>
  <metadata
     id="metadata4433">
    <rdf:RDF>
      <cc:Work
         rdf:about="">
        <dc:format>image/svg+xml</dc:format>
        <dc:type
           rdf:resource="http://purl.org/dc/dcmitype/StillImage" />
        <dc:title />
      </cc:Work>
    </rdf:RDF>
  </metadata>
  <g
     inkscape:label="Layer 1"
     inkscape:groupmode="layer"
     id="layer1"
     transform="translate(0,-1024.3622)">
    <g
       id="4"
       inkscape:label="#g3842"
       transform="translate(81,-3)" />
    <path
       inkscape:connector-curvature="0"
       id="active-center"
       d="m -42.714988,1018.9879 c 1.173604,0 2.282416,0.2409 3.299342,0.671 1.016926,0.4301 1.943073,1.0485 2.712172,1.8175 0.769097,0.7691 1.38731,1.6952 1.817434,2.7122 0.430122,1.017 0.671052,2.1256 0.671052,3.2993 0,1.1737 -0.24093,2.2823 -0.671052,3.2993 -0.430124,1.017 -1.048337,1.9431 -1.817434,2.7123 -0.769099,0.7689 -1.695246,1.3873 -2.712172,1.8174 -1.016926,0.4301 -2.125738,0.671 -3.299342,0.671 -1.173604,0 -2.282416,-0.2409 -3.299342,-0.671 -1.016926,-0.4301 -1.943073,-1.0485 -2.712171,-1.8174 -0.769099,-0.7692 -1.387311,-1.6953 -1.817434,-2.7123 -0.430124,-1.017 -0.671053,-2.1256 -0.671053,-3.2993 0,-1.1737 0.240929,-2.2823 0.671053,-3.2993 0.430123,-1.017 1.048335,-1.9431 1.817434,-2.7122 0.769098,-0.769 1.695245,-1.3874 2.712171,-1.8175 1.016926,-0.4301 2.125738,-0.671 3.299342,-0.671 z"
       style="fill:#00db30;fill-opacity:1;stroke:#009a22;stroke-width:1.50000000000000000;stroke-miterlimit:4;stroke-opacity:1;stroke-dasharray:none;filter:url(#filter3848)" />
    <text
       xml:space="preserve"
       style="font-size:4.95831585px;font-style:normal;font-weight:normal;line-height:125%;letter-spacing:0px;word-spacing:0px;fill:#000000;fill-opacity:1;stroke:none;font-family:Sans"
       x="-62.56818"
       y="951.63977"
       id="text3129"
       sodipodi:linespacing="125%"
       transform="scale(0.93892719,1.0650453)"><tspan
         sodipodi:role="line"
         id="tspan3131"
         x="-62.56818"
         y="951.63977">active-center</tspan></text>
    <text
       xml:space="preserve"
       style="font-size:4.95831585px;font-style:normal;font-weight:normal;line-height:125%;letter-spacing:0px;word-spacing:0px;fill:#000000;fill-opacity:1;stroke:none;font-family:Sans"
       x="-18.322857"
       y="951.86475"
       id="text3129-2"
       sodipodi:linespacing="125%"
       transform="scale(0.93892719,1.0650453)"><tspan
         sodipodi:role="line"
         id="tspan3131-8"
         x="-18.322857"
         y="951.86475">hover-center</tspan></text>
    <text
       xml:space="preserve"
       style="font-size:4.95831585px;font-style:normal;font-weight:normal;line-height:125%;letter-spacing:0px;word-spacing:0px;fill:#000000;fill-opacity:1;stroke:none;font-family:Sans"
       x="22.156309"
       y="951.69885"
       id="text3129-7"
       sodipodi:linespacing="125%"
       transform="scale(0.93892719,1.0650453)"><tspan
         sodipodi:role="line"
         id="tspan3131-9"
         x="22.156309"
         y="951.69885">pressed-center</tspan></text>
    <text
       xml:space="preserve"
       style="font-size:4.95831585px;font-style:normal;font-weight:normal;line-height:125%;letter-spacing:0px;word-spacing:0px;fill:#000000;fill-opacity:1;stroke:none;font-family:Sans"
       x="67.312553"
       y="952.04822"
       id="text3129-7-7"
       sodipodi:linespacing="125%"
       transform="scale(0.93892719,1.0650453)"><tspan
         sodipodi:role="line"
         id="tspan3131-9-4"
         x="67.312553"
         y="952.04822">inactive-center</tspan></text>
    <text
       xml:space="preserve"
       style="font-size:4.95831585px;font-style:normal;font-weight:normal;line-height:125%;letter-spacing:0px;word-spacing:0px;fill:#000000;fill-opacity:1;stroke:none;font-family:Sans"
       x="116.39549"
       y="951.53284"
       id="text3129-7-7-8"
       sodipodi:linespacing="125%"
       transform="scale(0.93892719,1.0650453)"><tspan
         sodipodi:role="line"
         id="tspan3131-9-4-4"
         x="116.39549"
         y="951.53284">deactivated-center</tspan></text>
    <path
       style="fill:#dbffe4;fill-opacity:1;stroke:#009a22;stroke-width:1.50000000000000000;stroke-miterlimit:4;stroke-opacity:1;stroke-dasharray:none;filter:url(#filter3872)"
       d="m 80.933707,1020.2258 c -1.1736,0 -2.29706,0.2528 -3.31398,0.683 -1.01693,0.4301 -1.93775,1.0272 -2.70685,1.7963 -0.7691,0.769 -1.36601,1.6897 -1.79613,2.7066 -0.43012,1.0169 -0.68304,2.1405 -0.68304,3.3141 0,1.1736 0.25292,2.2972 0.68304,3.3141 0.43012,1.0169 1.02703,1.9376 1.79613,2.7066 0.7691,0.7691 1.68992,1.3661 2.70685,1.7963 1.01692,0.4301 2.14038,0.683 3.31398,0.683 1.17361,0 2.29707,-0.2529 3.31399,-0.683 1.01693,-0.4302 1.93775,-1.0272 2.70684,-1.7963 0.7691,-0.769 1.36601,-1.6897 1.79614,-2.7066 0.43012,-1.0169 0.68303,-2.1405 0.68303,-3.3141 0,-1.1736 -0.25291,-2.2972 -0.68303,-3.3141 -0.43013,-1.0169 -1.02704,-1.9376 -1.79614,-2.7066 -0.76909,-0.7691 -1.68991,-1.3662 -2.70684,-1.7963 -1.01692,-0.4302 -2.14038,-0.683 -3.31399,-0.683 z"
       id="inactive-center"
       inkscape:connector-curvature="0" />
    <path
       style="fill:#dcdcdc;fill-opacity:1;stroke:#e6e6e6;stroke-width:1.5;stroke-miterlimit:4;stroke-opacity:1;stroke-dasharray:none;filter:url(#filter3916)"
       d="m 134.78831,1018.8306 c -1.17361,0 -2.29706,0.2528 -3.31399,0.683 -1.01692,0.4301 -1.93774,1.0272 -2.70684,1.7963 -0.7691,0.769 -1.36601,1.6897 -1.79613,2.7066 -0.43013,1.0169 -0.68304,2.1405 -0.68304,3.3141 0,1.1736 0.25291,2.2972 0.68304,3.3141 0.43012,1.0169 1.02703,1.9376 1.79613,2.7066 0.7691,0.7691 1.68992,1.3661 2.70684,1.7963 1.01693,0.4301 2.14038,0.683 3.31399,0.683 1.1736,0 2.29706,-0.2529 3.31399,-0.683 1.01692,-0.4302 1.93774,-1.0272 2.70684,-1.7963 0.7691,-0.769 1.36601,-1.6897 1.79614,-2.7066 0.43012,-1.0169 0.68303,-2.1405 0.68303,-3.3141 0,-1.1736 -0.25291,-2.2972 -0.68303,-3.3141 -0.43013,-1.0169 -1.02704,-1.9376 -1.79614,-2.7066 -0.7691,-0.7691 -1.68992,-1.3662 -2.70684,-1.7963 -1.01693,-0.4302 -2.14039,-0.683 -3.31399,-0.683 z"
       id="deactivated-center"
       inkscape:connector-curvature="0" />
    <path
       inkscape:connector-curvature="0"
       id="hover-center"
       d="m -2.6516502,1019.8205 c 1.173604,0 2.28241601,0.2409 3.29934201,0.671 1.01692599,0.4301 1.94307299,1.0485 2.71217199,1.8175 0.769097,0.7691 1.38731,1.6952 1.817434,2.7122 0.430122,1.017 0.671052,2.1256 0.671052,3.2993 0,1.1737 -0.24093,2.2823 -0.671052,3.2993 -0.430124,1.017 -1.048337,1.9431 -1.817434,2.7123 -0.769099,0.7689 -1.695246,1.3873 -2.71217199,1.8174 -1.016926,0.4301 -2.12573801,0.671 -3.29934201,0.671 -1.173604,0 -2.282416,-0.2409 -3.299342,-0.671 -1.016926,-0.4301 -1.943073,-1.0485 -2.712171,-1.8174 -0.769099,-0.7692 -1.3873108,-1.6953 -1.8174338,-2.7123 -0.430124,-1.017 -0.671053,-2.1256 -0.671053,-3.2993 0,-1.1737 0.240929,-2.2823 0.671053,-3.2993 0.430123,-1.017 1.0483348,-1.9431 1.8174338,-2.7122 0.769098,-0.769 1.695245,-1.3874 2.712171,-1.8175 1.016926,-0.4301 2.125738,-0.671 3.299342,-0.671 z"
       style="fill:#a3ffb7;fill-opacity:1;stroke:#009a22;stroke-width:1.50000000000000000;stroke-miterlimit:4;stroke-opacity:1;stroke-dasharray:none;filter:url(#filter3856)"
       inkscape:label="hover-center" />
    <path
       inkscape:connector-curvature="0"
       id="pressed-center"
       d="m 41.18897,1019.4669 c 1.173604,0 2.282416,0.2409 3.299342,0.671 1.016926,0.4301 1.943073,1.0485 2.712172,1.8175 0.769097,0.7691 1.38731,1.6952 1.817434,2.7122 0.430122,1.017 0.671052,2.1256 0.671052,3.2993 0,1.1737 -0.24093,2.2823 -0.671052,3.2993 -0.430124,1.017 -1.048337,1.9431 -1.817434,2.7123 -0.769099,0.7689 -1.695246,1.3873 -2.712172,1.8174 -1.016926,0.4301 -2.125738,0.671 -3.299342,0.671 -1.173604,0 -2.282416,-0.2409 -3.299342,-0.671 -1.016926,-0.4301 -1.943073,-1.0485 -2.712171,-1.8174 -0.769099,-0.7692 -1.387311,-1.6953 -1.817434,-2.7123 -0.430124,-1.017 -0.671053,-2.1256 -0.671053,-3.2993 0,-1.1737 0.240929,-2.2823 0.671053,-3.2993 0.430123,-1.017 1.048335,-1.9431 1.817434,-2.7122 0.769098,-0.769 1.695245,-1.3874 2.712171,-1.8175 1.016926,-0.4301 2.125738,-0.671 3.299342,-0.671 z"
       style="fill:#00db30;fill-opacity:1;stroke:#009a22;stroke-width:1.50000000000000000;stroke-miterlimit:4;stroke-opacity:1;stroke-dasharray:none;filter:url(#filter3864)" />
  </g>
</svg>
